<?xml version="1.0" standalone="no"?>
<!DOCTYPE svg PUBLIC "-//W3C//DTD SVG 20010904//EN"
 "http://www.w3.org/TR/2001/REC-SVG-20010904/DTD/svg10.dtd">
<svg version="1.0" xmlns="http://www.w3.org/2000/svg"
 width="30.000000pt" height="30.000000pt" viewBox="0 0 30.000000 30.000000"
 preserveAspectRatio="xMidYMid meet">

<g transform="translate(0.000000,30.000000) scale(0.100000,-0.100000)"
fill="#fff" stroke="none">
<path d="M167 222 c-29 -29 -49 -60 -53 -81 l-7 -34 34 7 c37 7 129 90 129
116 0 20 -20 40 -40 40 -9 0 -37 -21 -63 -48z m81 9 c3 -8 -1 -12 -9 -9 -7 2
-15 10 -17 17 -3 8 1 12 9 9 7 -2 15 -10 17 -17z m-32 -22 c7 -12 -44 -69 -63
-69 -21 0 -15 22 14 52 29 30 38 34 49 17z"/>
<path d="M42 238 c-16 -16 -16 -180 0 -196 16 -16 180 -16 196 0 14 14 16 98
2 98 -5 0 -10 -20 -10 -45 l0 -45 -90 0 -90 0 0 90 0 90 45 0 c25 0 45 5 45
10 0 14 -84 12 -98 -2z"/>
</g>
</svg>
